<svg width="255" height="217" viewBox="0 0 255 217" fill="none" xmlns="http://www.w3.org/2000/svg">
<g filter="url(#filter0_d_2_8)">
<path d="M16.5713 18.5002C15.6086 16.3496 15.6986 12.5001 18.1242 12.5001C42.4514 12.4999 76.0415 12 115.379 12C124.956 12 134.012 13.6077 142.348 16C144.882 16.7273 152.013 20 155.234 22C158.455 23.9999 165.694 30.0081 168.228 33.0001C170.762 35.9921 174.749 42.0004 178.062 50.0002C181.375 58 182.203 68.0002 182.203 68.0002C182.203 68.0002 182.326 80.9394 180.65 89.0003C178.837 97.7185 176.321 105.5 173.921 109C171.522 112.5 166.157 118.766 159.429 123.5C152.7 128.235 141.83 132.5 141.83 132.5V165C141.83 165 225.627 165 227.234 165C228.84 165 229.768 160.5 229.768 160.5H239.139V197.5H230.857L227.234 193.5H99.3872C99.3872 193.5 96.853 193 95.764 191.5C94.6749 190 94.7288 188 94.7288 188C94.7288 188 94.7288 182 100.422 182C101.458 182 100.422 137.5 100.422 137.5H20.1945C16.5713 137.5 16.5175 133.5 16.5176 132C16.5177 130.5 16.5178 127.417 19.1056 127C21.6936 126.583 22.7825 124.5 22.7825 124.5V23.0002C22.7825 20.0713 17.7748 21.1886 16.5713 18.5002Z" fill="#D9D9D9" shape-rendering="crispEdges"/>
<path d="M16.5713 18.5002C15.6086 16.3496 15.6986 12.5001 18.1242 12.5001C42.4514 12.4999 76.0415 12 115.379 12C124.956 12 134.012 13.6077 142.348 16C144.882 16.7273 152.013 20 155.234 22C158.455 23.9999 165.694 30.0081 168.228 33.0001C170.762 35.9921 174.749 42.0004 178.062 50.0002C181.375 58 182.203 68.0002 182.203 68.0002C182.203 68.0002 182.326 80.9394 180.65 89.0003C178.837 97.7185 176.321 105.5 173.921 109C171.522 112.5 166.157 118.766 159.429 123.5C152.7 128.235 141.83 132.5 141.83 132.5V165C141.83 165 225.627 165 227.234 165C228.84 165 229.768 160.5 229.768 160.5H239.139V197.5H230.857L227.234 193.5H99.3872C99.3872 193.5 96.853 193 95.764 191.5C94.6749 190 94.7288 188 94.7288 188C94.7288 188 94.7288 182 100.422 182C101.458 182 100.422 137.5 100.422 137.5H20.1945C16.5713 137.5 16.5175 133.5 16.5176 132C16.5177 130.5 16.5178 127.417 19.1056 127C21.6936 126.583 22.7825 124.5 22.7825 124.5V23.0002C22.7825 20.0713 17.7748 21.1886 16.5713 18.5002Z" stroke="black" stroke-opacity="0.25" shape-rendering="crispEdges"/>
</g>
<g filter="url(#filter1_i_2_8)">
<path d="M62.5839 109V39H100.886C100.886 39 116.605 39 127.284 44.5C140.741 51.4314 140.741 66.5 140.741 66.5H97.7805L94.675 69V75.5L100.886 78V109H62.5839Z" fill="white"/>
</g>
<path d="M62.5839 109V39H100.886C100.886 39 116.605 39 127.284 44.5C140.741 51.4314 140.741 66.5 140.741 66.5H97.7805L94.675 69V75.5L100.886 78V109H62.5839Z" stroke="black" stroke-opacity="0.25"/>
<path d="M139.304 78.7523C139.45 77.9306 141.259 76.9315 141.259 77.7803C141.014 83.1 141.143 84.4999 140.224 86.9999C139.304 89.4999 139.304 78.7523 139.304 78.7523Z" fill="#8B8B8B"/>
<g filter="url(#filter2_d_2_8)">
<path d="M19.6232 17V15H105.027C156.269 12 178.008 43.5 178.008 70C178.008 96.5 170.244 117 140.741 128V96.5C144.697 90.1041 145.684 85.3704 145.917 75.5C147.983 72.1806 148.331 70.3193 145.917 67C140.99 44.6386 132.149 37.0609 102.956 34.5H57.9254V114H101.404V133.5H20.1408V130.5L26.8695 125V21L19.6232 17Z" fill="#033A5B"/>
<path d="M143.329 70H98.8157V73C102.515 73.8479 103.72 74.8107 105.027 77V182.5C103.011 184.755 101.518 185.609 98.2981 186.5V189H227.698C230.781 190.072 231.927 191.269 233.391 194H235.979V164H233.391C232.319 166.909 231.243 168.057 228.733 169.5H137.118V77C138.502 74.0897 139.978 73.3636 143.329 73V70Z" fill="#033A5B"/>
</g>
<defs>
<filter id="filter0_d_2_8" x="0.500031" y="0.5" width="254.139" height="216.5" filterUnits="userSpaceOnUse" color-interpolation-filters="sRGB">
<feFlood flood-opacity="0" result="BackgroundImageFix"/>
<feColorMatrix in="SourceAlpha" type="matrix" values="0 0 0 0 0 0 0 0 0 0 0 0 0 0 0 0 0 0 127 0" result="hardAlpha"/>
<feOffset dy="4"/>
<feGaussianBlur stdDeviation="7.5"/>
<feComposite in2="hardAlpha" operator="out"/>
<feColorMatrix type="matrix" values="0 0 0 0 0 0 0 0 0 0 0 0 0 0 0 0 0 0 0.25 0"/>
<feBlend mode="normal" in2="BackgroundImageFix" result="effect1_dropShadow_2_8"/>
<feBlend mode="normal" in="SourceGraphic" in2="effect1_dropShadow_2_8" result="shape"/>
</filter>
<filter id="filter1_i_2_8" x="62.0839" y="38.5" width="79.1573" height="75" filterUnits="userSpaceOnUse" color-interpolation-filters="sRGB">
<feFlood flood-opacity="0" result="BackgroundImageFix"/>
<feBlend mode="normal" in="SourceGraphic" in2="BackgroundImageFix" result="shape"/>
<feColorMatrix in="SourceAlpha" type="matrix" values="0 0 0 0 0 0 0 0 0 0 0 0 0 0 0 0 0 0 127 0" result="hardAlpha"/>
<feOffset dy="4"/>
<feGaussianBlur stdDeviation="7.5"/>
<feComposite in2="hardAlpha" operator="arithmetic" k2="-1" k3="1"/>
<feColorMatrix type="matrix" values="0 0 0 0 0 0 0 0 0 0 0 0 0 0 0 0 0 0 0.25 0"/>
<feBlend mode="normal" in2="shape" result="effect1_innerShadow_2_8"/>
</filter>
<filter id="filter2_d_2_8" x="4.62317" y="3.80096" width="246.356" height="209.199" filterUnits="userSpaceOnUse" color-interpolation-filters="sRGB">
<feFlood flood-opacity="0" result="BackgroundImageFix"/>
<feColorMatrix in="SourceAlpha" type="matrix" values="0 0 0 0 0 0 0 0 0 0 0 0 0 0 0 0 0 0 127 0" result="hardAlpha"/>
<feOffset dy="4"/>
<feGaussianBlur stdDeviation="7.5"/>
<feComposite in2="hardAlpha" operator="out"/>
<feColorMatrix type="matrix" values="0 0 0 0 0 0 0 0 0 0 0 0 0 0 0 0 0 0 0.25 0"/>
<feBlend mode="normal" in2="BackgroundImageFix" result="effect1_dropShadow_2_8"/>
<feBlend mode="normal" in="SourceGraphic" in2="effect1_dropShadow_2_8" result="shape"/>
</filter>
</defs>
</svg>
