<svg width="884" height="381" viewBox="0 0 884 381" fill="none" xmlns="http://www.w3.org/2000/svg">
<g filter="url(#filter0_d_3_60)">
<path d="M323.571 18.5002C322.609 16.3496 322.699 12.5001 325.124 12.5001C349.451 12.4999 383.041 12 422.379 12C431.956 12 441.012 13.6077 449.348 16C451.882 16.7273 459.013 20 462.234 22C465.455 23.9999 472.694 30.0081 475.228 33.0001C477.762 35.9921 481.749 42.0004 485.062 50.0002C488.375 58 489.203 68.0002 489.203 68.0002C489.203 68.0002 489.326 80.9394 487.65 89.0003C485.837 97.7185 483.321 105.5 480.921 109C478.522 112.5 473.157 118.766 466.429 123.5C459.7 128.235 448.83 132.5 448.83 132.5V165C448.83 165 532.627 165 534.234 165C535.84 165 536.768 160.5 536.768 160.5H546.139V197.5H537.857L534.234 193.5H406.387C406.387 193.5 403.853 193 402.764 191.5C401.675 190 401.729 188 401.729 188C401.729 188 401.729 182 407.422 182C408.458 182 407.422 137.5 407.422 137.5H327.195C323.571 137.5 323.518 133.5 323.518 132V132C323.518 130.5 323.518 127.417 326.106 127C328.694 126.583 329.783 124.5 329.783 124.5V23.0002C329.783 20.0713 324.775 21.1886 323.571 18.5002Z" fill="#D9D9D9" shape-rendering="crispEdges"/>
<path d="M323.571 18.5002C322.609 16.3496 322.699 12.5001 325.124 12.5001C349.451 12.4999 383.041 12 422.379 12C431.956 12 441.012 13.6077 449.348 16C451.882 16.7273 459.013 20 462.234 22C465.455 23.9999 472.694 30.0081 475.228 33.0001C477.762 35.9921 481.749 42.0004 485.062 50.0002C488.375 58 489.203 68.0002 489.203 68.0002C489.203 68.0002 489.326 80.9394 487.65 89.0003C485.837 97.7185 483.321 105.5 480.921 109C478.522 112.5 473.157 118.766 466.429 123.5C459.7 128.235 448.83 132.5 448.83 132.5V165C448.83 165 532.627 165 534.234 165C535.84 165 536.768 160.5 536.768 160.5H546.139V197.5H537.857L534.234 193.5H406.387C406.387 193.5 403.853 193 402.764 191.5C401.675 190 401.729 188 401.729 188C401.729 188 401.729 182 407.422 182C408.458 182 407.422 137.5 407.422 137.5H327.195C323.571 137.5 323.518 133.5 323.518 132V132C323.518 130.5 323.518 127.417 326.106 127C328.694 126.583 329.783 124.5 329.783 124.5V23.0002C329.783 20.0713 324.775 21.1886 323.571 18.5002Z" stroke="black" stroke-opacity="0.25" shape-rendering="crispEdges"/>
</g>
<path d="M446.304 78.7522C446.45 77.9306 448.259 76.9315 448.259 77.7803C448.014 83.0999 448.143 84.4998 447.224 86.9998C446.304 89.4998 446.304 78.7522 446.304 78.7522Z" fill="#8B8B8B"/>
<g filter="url(#filter1_d_3_60)">
<path d="M326.623 17V15H412.027C463.269 12 485.008 43.5 485.008 70C485.008 96.5 477.244 117 447.741 128V96.5C451.697 90.1041 452.684 85.3704 452.917 75.5C454.983 72.1806 455.331 70.3193 452.917 67C447.99 44.6386 439.149 37.0609 409.956 34.5H364.925V114H408.404V133.5H327.141V130.5L333.87 125V21L326.623 17Z" fill="#033A5B"/>
<path d="M450.329 70H405.816V73C409.515 73.8479 410.72 74.8107 412.027 77V182.5C410.011 184.755 408.518 185.609 405.298 186.5V189H534.698C537.781 190.072 538.927 191.269 540.391 194H542.979V164H540.391C539.319 166.909 538.243 168.057 535.733 169.5H444.118V77C445.502 74.0897 446.978 73.3636 450.329 73V70Z" fill="#033A5B"/>
</g>
<g filter="url(#filter2_i_3_60)">
<path d="M369.584 109V39H407.886C407.886 39 423.605 39 434.284 44.5C447.741 51.4314 447.741 66.5 447.741 66.5H404.781L401.675 69V75.5L407.886 78V109H369.584Z" fill="white"/>
</g>
<path d="M369.584 109V39H407.886C407.886 39 423.605 39 434.284 44.5C447.741 51.4314 447.741 66.5 447.741 66.5H404.781L401.675 69V75.5L407.886 78V109H369.584Z" stroke="black" stroke-opacity="0.25"/>
<path d="M43.92 280.68C47.68 280.68 50.96 280.36 53.76 279.72C56.56 279.08 58.88 277.96 60.72 276.36C62.56 274.68 63.92 272.48 64.8 269.76C65.76 267.04 66.24 263.6 66.24 259.44C66.24 255.28 65.76 251.84 64.8 249.12C63.92 246.4 62.56 244.24 60.72 242.64C58.88 240.96 56.56 239.8 53.76 239.16C50.96 238.52 47.68 238.2 43.92 238.2H25.32V280.68H43.92ZM48.72 227.88C53.12 227.88 57.2 228.52 60.96 229.8C64.8 231.08 68.12 233.04 70.92 235.68C73.72 238.24 75.92 241.52 77.52 245.52C79.12 249.44 79.92 254.08 79.92 259.44C79.92 264.8 79.12 269.48 77.52 273.48C75.92 277.4 73.72 280.68 70.92 283.32C68.12 285.88 64.8 287.8 60.96 289.08C57.2 290.36 53.12 291 48.72 291H8.88V288.84C10.72 288.84 11.64 288.12 11.64 286.68V232.2C11.64 230.76 10.72 230.04 8.88 230.04V227.88H48.72ZM142.762 249.36C142.762 247.84 141.522 247.08 139.042 247.08H109.762V259.08H128.242C129.602 259.08 130.602 259 131.242 258.84C131.882 258.6 132.202 258.04 132.202 257.16H134.362V269.88H131.962C132.202 269 131.882 268.48 131.002 268.32C130.122 268.08 128.882 267.96 127.282 267.96H109.762V282.12H140.482C141.442 282.12 142.242 281.92 142.882 281.52C143.522 281.04 143.842 280.44 143.842 279.72H146.002V292.32H143.842C143.842 291.6 143.522 291.2 142.882 291.12C142.242 291.04 141.442 291 140.482 291H96.4416V288.84C96.8416 288.84 97.2416 288.72 97.6416 288.48C98.0416 288.16 98.2416 287.68 98.2416 287.04V242.16C98.2416 241.52 98.0416 241.08 97.6416 240.84C97.2416 240.52 96.8416 240.36 96.4416 240.36V238.2H139.042C141.522 238.2 142.762 237.48 142.762 236.04H144.922V249.36H142.762ZM179.801 238.2V240.36C177.961 240.36 177.041 240.96 177.041 242.16V282.12H209.441C210.401 282.12 211.201 281.92 211.841 281.52C212.481 281.04 212.801 280.4 212.801 279.6H214.961V292.2H212.801C212.801 291.56 212.481 291.2 211.841 291.12C211.201 291.04 210.401 291 209.441 291H162.401V288.84C164.481 288.84 165.521 288.24 165.521 287.04V242.16C165.521 240.96 164.481 240.36 162.401 240.36V238.2H179.801ZM276.481 255.6L275.041 254.76C275.201 253.96 275.281 253.52 275.281 253.44C275.281 252.72 274.761 251.96 273.721 251.16C272.681 250.28 271.321 249.48 269.641 248.76C267.961 248.04 266.041 247.48 263.881 247.08C261.801 246.6 259.681 246.36 257.521 246.36C254.561 246.36 251.761 246.72 249.121 247.44C246.481 248.08 244.161 249.16 242.161 250.68C240.161 252.12 238.561 254 237.361 256.32C236.161 258.64 235.561 261.48 235.561 264.84C235.561 268.2 236.201 271.04 237.481 273.36C238.761 275.6 240.401 277.44 242.401 278.88C244.481 280.24 246.761 281.24 249.241 281.88C251.721 282.52 254.121 282.84 256.441 282.84C259.881 282.84 263.121 282.6 266.161 282.12C269.281 281.64 272.121 280.72 274.681 279.36V271.8H262.321C261.441 271.8 260.681 272 260.041 272.4C259.401 272.72 259.001 273.36 258.841 274.32H256.681V261.96H258.841C259.001 262.76 259.401 263.28 260.041 263.52C260.681 263.76 261.441 263.88 262.321 263.88H285.841V266.04C285.121 266.36 284.641 266.72 284.401 267.12C284.161 267.52 284.041 268.12 284.041 268.92V280.32C284.041 281.04 284.121 281.56 284.281 281.88C284.521 282.12 285.041 282.4 285.841 282.72V284.16C285.121 284.64 283.961 285.32 282.361 286.2C280.841 287 278.881 287.8 276.481 288.6C274.161 289.4 271.441 290.08 268.321 290.64C265.201 291.12 261.721 291.36 257.881 291.36C252.681 291.36 247.961 290.8 243.721 289.68C239.561 288.48 236.001 286.72 233.041 284.4C230.161 282.08 227.921 279.28 226.321 276C224.801 272.64 224.041 268.84 224.041 264.6C224.041 260.36 224.801 256.6 226.321 253.32C227.921 249.96 230.161 247.12 233.041 244.8C236.001 242.4 239.561 240.6 243.721 239.4C247.961 238.12 252.681 237.48 257.881 237.48C261.001 237.48 263.761 237.76 266.161 238.32C268.561 238.88 270.641 239.48 272.401 240.12C274.241 240.76 275.721 241.36 276.841 241.92C277.961 242.48 278.801 242.76 279.361 242.76C280.001 242.76 280.481 242.72 280.801 242.64C281.121 242.48 281.521 242.2 282.001 241.8L283.441 242.52L276.481 255.6ZM335.2 268.92L325.48 248.76L316.96 268.92H335.2ZM295.12 288.84C296.08 288.68 296.84 288.24 297.4 287.52C298.04 286.72 298.52 286 298.84 285.36L316.72 246.36C317.2 245.24 317.56 244.36 317.8 243.72C318.12 243 318.28 242.32 318.28 241.68C318.28 241.2 318.16 240.92 317.92 240.84C317.76 240.68 317.56 240.52 317.32 240.36V238.2H335.44V240.36C335.2 240.52 334.92 240.64 334.6 240.72C334.36 240.8 334.24 241.12 334.24 241.68C334.24 242.16 334.4 242.76 334.72 243.48C335.12 244.12 335.52 244.88 335.92 245.76L355.36 286.56C355.76 287.28 356.2 287.8 356.68 288.12C357.16 288.44 357.68 288.68 358.24 288.84V291H341.2V289.2C341.6 289.2 342 289.08 342.4 288.84C342.88 288.6 343.12 288.16 343.12 287.52C343.12 287.04 343.04 286.6 342.88 286.2C342.72 285.8 342.52 285.28 342.28 284.64L339.04 277.8H313.36L310 284.28C309.68 284.92 309.4 285.52 309.16 286.08C309 286.56 308.92 287 308.92 287.4C308.92 288.04 309.12 288.44 309.52 288.6C309.92 288.76 310.48 288.84 311.2 288.84V291H295.12V288.84ZM397.92 282.12C400.4 282.12 402.76 281.96 405 281.64C407.24 281.24 409.2 280.44 410.88 279.24C412.56 277.96 413.88 276.16 414.84 273.84C415.88 271.44 416.4 268.24 416.4 264.24C416.4 260.24 415.88 257.12 414.84 254.88C413.88 252.56 412.56 250.84 410.88 249.72C409.2 248.52 407.24 247.8 405 247.56C402.76 247.24 400.4 247.08 397.92 247.08H382.32V282.12H397.92ZM368.04 288.84C369.88 288.84 370.8 288.24 370.8 287.04V242.16C370.8 240.96 369.88 240.36 368.04 240.36V238.2H401.4C406.12 238.2 410.16 238.96 413.52 240.48C416.88 242 419.6 244 421.68 246.48C423.84 248.88 425.4 251.68 426.36 254.88C427.4 258 427.92 261.24 427.92 264.6C427.92 267.96 427.44 271.24 426.48 274.44C425.52 277.56 424 280.36 421.92 282.84C419.84 285.24 417.16 287.2 413.88 288.72C410.6 290.24 406.6 291 401.88 291H368.04V288.84ZM469.959 246.36C467.399 246.36 464.879 246.8 462.399 247.68C459.999 248.48 457.839 249.68 455.919 251.28C453.999 252.8 452.439 254.68 451.239 256.92C450.119 259.16 449.559 261.72 449.559 264.6C449.559 267.48 450.119 270.04 451.239 272.28C452.439 274.52 453.999 276.44 455.919 278.04C457.839 279.56 459.999 280.76 462.399 281.64C464.879 282.44 467.399 282.84 469.959 282.84C472.519 282.84 474.999 282.44 477.399 281.64C479.879 280.76 482.079 279.56 483.999 278.04C485.919 276.44 487.439 274.52 488.559 272.28C489.759 270.04 490.359 267.48 490.359 264.6C490.359 261.72 489.759 259.16 488.559 256.92C487.439 254.68 485.919 252.8 483.999 251.28C482.079 249.68 479.879 248.48 477.399 247.68C474.999 246.8 472.519 246.36 469.959 246.36ZM469.959 237.48C474.359 237.48 478.479 238.04 482.319 239.16C486.239 240.28 489.639 241.96 492.519 244.2C495.399 246.44 497.679 249.28 499.359 252.72C501.039 256.08 501.879 260.04 501.879 264.6C501.879 269.16 501.039 273.16 499.359 276.6C497.679 279.96 495.399 282.76 492.519 285C489.639 287.24 486.239 288.88 482.319 289.92C478.479 290.88 474.359 291.36 469.959 291.36C465.559 291.36 461.399 290.88 457.479 289.92C453.639 288.88 450.279 287.24 447.399 285C444.519 282.76 442.239 279.96 440.559 276.6C438.879 273.16 438.039 269.16 438.039 264.6C438.039 260.04 438.879 256.08 440.559 252.72C442.239 249.28 444.519 246.44 447.399 244.2C450.279 241.96 453.639 240.28 457.479 239.16C461.399 238.04 465.559 237.48 469.959 237.48ZM569.801 238.2V240.36C567.961 240.36 567.041 240.96 567.041 242.16V282.12H599.441C600.401 282.12 601.201 281.92 601.841 281.52C602.481 281.04 602.801 280.4 602.801 279.6H604.961V292.2H602.801C602.801 291.56 602.481 291.2 601.841 291.12C601.201 291.04 600.401 291 599.441 291H552.401V288.84C554.481 288.84 555.521 288.24 555.521 287.04V242.16C555.521 240.96 554.481 240.36 552.401 240.36V238.2H569.801ZM666.121 249.36C666.121 247.84 664.881 247.08 662.401 247.08H633.121V259.08H651.601C652.961 259.08 653.961 259 654.601 258.84C655.241 258.6 655.561 258.04 655.561 257.16H657.721V269.88H655.321C655.561 269 655.241 268.48 654.361 268.32C653.481 268.08 652.241 267.96 650.641 267.96H633.121V282.12H663.841C664.801 282.12 665.601 281.92 666.241 281.52C666.881 281.04 667.201 280.44 667.201 279.72H669.361V292.32H667.201C667.201 291.6 666.881 291.2 666.241 291.12C665.601 291.04 664.801 291 663.841 291H619.801V288.84C620.201 288.84 620.601 288.72 621.001 288.48C621.401 288.16 621.601 287.68 621.601 287.04V242.16C621.601 241.52 621.401 241.08 621.001 240.84C620.601 240.52 620.201 240.36 619.801 240.36V238.2H662.401C664.881 238.2 666.121 237.48 666.121 236.04H668.281V249.36H666.121ZM733.161 255.6L731.721 254.76C731.881 253.96 731.961 253.52 731.961 253.44C731.961 252.72 731.441 251.96 730.401 251.16C729.361 250.28 728.001 249.48 726.321 248.76C724.641 248.04 722.721 247.48 720.561 247.08C718.481 246.6 716.361 246.36 714.201 246.36C711.241 246.36 708.441 246.72 705.801 247.44C703.161 248.08 700.841 249.16 698.841 250.68C696.841 252.12 695.241 254 694.041 256.32C692.841 258.64 692.241 261.48 692.241 264.84C692.241 268.2 692.881 271.04 694.161 273.36C695.441 275.6 697.081 277.44 699.081 278.88C701.161 280.24 703.441 281.24 705.921 281.88C708.401 282.52 710.801 282.84 713.121 282.84C716.561 282.84 719.801 282.6 722.841 282.12C725.961 281.64 728.801 280.72 731.361 279.36V271.8H719.001C718.121 271.8 717.361 272 716.721 272.4C716.081 272.72 715.681 273.36 715.521 274.32H713.361V261.96H715.521C715.681 262.76 716.081 263.28 716.721 263.52C717.361 263.76 718.121 263.88 719.001 263.88H742.521V266.04C741.801 266.36 741.321 266.72 741.081 267.12C740.841 267.52 740.721 268.12 740.721 268.92V280.32C740.721 281.04 740.801 281.56 740.961 281.88C741.201 282.12 741.721 282.4 742.521 282.72V284.16C741.801 284.64 740.641 285.32 739.041 286.2C737.521 287 735.561 287.8 733.161 288.6C730.841 289.4 728.121 290.08 725.001 290.64C721.881 291.12 718.401 291.36 714.561 291.36C709.361 291.36 704.641 290.8 700.401 289.68C696.241 288.48 692.681 286.72 689.721 284.4C686.841 282.08 684.601 279.28 683.001 276C681.481 272.64 680.721 268.84 680.721 264.6C680.721 260.36 681.481 256.6 683.001 253.32C684.601 249.96 686.841 247.12 689.721 244.8C692.681 242.4 696.241 240.6 700.401 239.4C704.641 238.12 709.361 237.48 714.561 237.48C717.681 237.48 720.441 237.76 722.841 238.32C725.241 238.88 727.321 239.48 729.081 240.12C730.921 240.76 732.401 241.36 733.521 241.92C734.641 242.48 735.481 242.76 736.041 242.76C736.681 242.76 737.161 242.72 737.481 242.64C737.801 242.48 738.201 242.2 738.681 241.8L740.121 242.52L733.161 255.6ZM791.88 268.92L782.16 248.76L773.64 268.92H791.88ZM751.8 288.84C752.76 288.68 753.52 288.24 754.08 287.52C754.72 286.72 755.2 286 755.52 285.36L773.4 246.36C773.88 245.24 774.24 244.36 774.48 243.72C774.8 243 774.96 242.32 774.96 241.68C774.96 241.2 774.84 240.92 774.6 240.84C774.44 240.68 774.24 240.52 774 240.36V238.2H792.12V240.36C791.88 240.52 791.6 240.64 791.28 240.72C791.04 240.8 790.92 241.12 790.92 241.68C790.92 242.16 791.08 242.76 791.4 243.48C791.8 244.12 792.2 244.88 792.6 245.76L812.04 286.56C812.44 287.28 812.88 287.8 813.36 288.12C813.84 288.44 814.36 288.68 814.92 288.84V291H797.88V289.2C798.28 289.2 798.68 289.08 799.08 288.84C799.56 288.6 799.8 288.16 799.8 287.52C799.8 287.04 799.72 286.6 799.56 286.2C799.4 285.8 799.2 285.28 798.96 284.64L795.72 277.8H770.04L766.68 284.28C766.36 284.92 766.08 285.52 765.84 286.08C765.68 286.56 765.6 287 765.6 287.4C765.6 288.04 765.8 288.44 766.2 288.6C766.6 288.76 767.16 288.84 767.88 288.84V291H751.8V288.84ZM843.2 238.2V240.36C841.36 240.36 840.44 240.96 840.44 242.16V282.12H872.84C873.8 282.12 874.6 281.92 875.24 281.52C875.88 281.04 876.2 280.4 876.2 279.6H878.36V292.2H876.2C876.2 291.56 875.88 291.2 875.24 291.12C874.6 291.04 873.8 291 872.84 291H825.8V288.84C827.88 288.84 828.92 288.24 828.92 287.04V242.16C828.92 240.96 827.88 240.36 825.8 240.36V238.2H843.2Z" fill="black"/>
<path d="M404.24 332.305C405.802 332.305 407.127 331.998 408.216 331.382C409.352 330.767 409.92 329.56 409.92 327.761C409.92 325.963 409.352 324.756 408.216 324.14C407.127 323.525 405.802 323.217 404.24 323.217H389.117V332.305H404.24ZM378.396 354.031V352.753C380.147 352.753 381.023 352.327 381.023 351.475V319.241C381.023 318.389 380.147 317.963 378.396 317.963V316.685H403.388C407.932 316.685 411.506 317.537 414.109 319.241C416.712 320.898 418.014 323.738 418.014 327.761C418.014 331.785 416.712 334.648 414.109 336.352C411.506 338.009 407.932 338.837 403.388 338.837H389.117V351.475C389.117 352.327 389.874 352.753 391.389 352.753V354.031H378.396ZM426.107 349.416C426.107 348.044 426.604 346.86 427.598 345.866C428.592 344.872 429.776 344.375 431.148 344.375C432.521 344.375 433.704 344.872 434.698 345.866C435.692 346.86 436.189 348.044 436.189 349.416C436.189 350.789 435.692 351.949 434.698 352.895C433.704 353.795 432.521 354.244 431.148 354.244C429.776 354.244 428.592 353.795 427.598 352.895C426.604 351.949 426.107 350.789 426.107 349.416ZM470.247 339.547L464.283 326.341L457.609 339.547H470.247ZM443.48 352.753C444.096 352.659 444.569 352.351 444.9 351.83C445.279 351.31 445.634 350.718 445.965 350.055L459.1 322.436C459.432 321.821 459.716 321.253 459.952 320.732C460.236 320.212 460.378 319.762 460.378 319.383C460.378 318.91 460.213 318.579 459.881 318.389C459.55 318.2 459.195 318.058 458.816 317.963V316.685H470.815V317.963C470.484 318.058 470.153 318.2 469.821 318.389C469.49 318.531 469.324 318.863 469.324 319.383C469.324 319.762 469.395 320.141 469.537 320.519C469.727 320.898 469.987 321.395 470.318 322.01L485.086 350.907C485.323 351.428 485.631 351.807 486.009 352.043C486.435 352.28 486.909 352.517 487.429 352.753V354.031H474.933V352.753C475.123 352.753 475.359 352.682 475.643 352.54C475.927 352.398 476.069 352.185 476.069 351.901C476.069 351.428 475.88 350.813 475.501 350.055L472.803 344.801H455.479L452.923 349.842C452.45 350.836 452.213 351.546 452.213 351.972C452.213 352.493 452.663 352.753 453.562 352.753V354.031H443.48V352.753ZM495.097 349.416C495.097 348.044 495.594 346.86 496.588 345.866C497.582 344.872 498.765 344.375 500.138 344.375C501.51 344.375 502.694 344.872 503.688 345.866C504.682 346.86 505.179 348.044 505.179 349.416C505.179 350.789 504.682 351.949 503.688 352.895C502.694 353.795 501.51 354.244 500.138 354.244C498.765 354.244 497.582 353.795 496.588 352.895C495.594 351.949 495.097 350.789 495.097 349.416Z" fill="black"/>
<line x1="87" y1="337.516" x2="347" y2="337.516" stroke="black" stroke-width="5"/>
<line x1="549" y1="337.516" x2="809" y2="337.516" stroke="black" stroke-width="5"/>
<defs>
<filter id="filter0_d_3_60" x="307.5" y="0.5" width="254.139" height="216.5" filterUnits="userSpaceOnUse" color-interpolation-filters="sRGB">
<feFlood flood-opacity="0" result="BackgroundImageFix"/>
<feColorMatrix in="SourceAlpha" type="matrix" values="0 0 0 0 0 0 0 0 0 0 0 0 0 0 0 0 0 0 127 0" result="hardAlpha"/>
<feOffset dy="4"/>
<feGaussianBlur stdDeviation="7.5"/>
<feComposite in2="hardAlpha" operator="out"/>
<feColorMatrix type="matrix" values="0 0 0 0 0 0 0 0 0 0 0 0 0 0 0 0 0 0 0.25 0"/>
<feBlend mode="normal" in2="BackgroundImageFix" result="effect1_dropShadow_3_60"/>
<feBlend mode="normal" in="SourceGraphic" in2="effect1_dropShadow_3_60" result="shape"/>
</filter>
<filter id="filter1_d_3_60" x="311.623" y="3.80096" width="246.356" height="209.199" filterUnits="userSpaceOnUse" color-interpolation-filters="sRGB">
<feFlood flood-opacity="0" result="BackgroundImageFix"/>
<feColorMatrix in="SourceAlpha" type="matrix" values="0 0 0 0 0 0 0 0 0 0 0 0 0 0 0 0 0 0 127 0" result="hardAlpha"/>
<feOffset dy="4"/>
<feGaussianBlur stdDeviation="7.5"/>
<feComposite in2="hardAlpha" operator="out"/>
<feColorMatrix type="matrix" values="0 0 0 0 0 0 0 0 0 0 0 0 0 0 0 0 0 0 0.25 0"/>
<feBlend mode="normal" in2="BackgroundImageFix" result="effect1_dropShadow_3_60"/>
<feBlend mode="normal" in="SourceGraphic" in2="effect1_dropShadow_3_60" result="shape"/>
</filter>
<filter id="filter2_i_3_60" x="369.084" y="38.5" width="79.1573" height="75" filterUnits="userSpaceOnUse" color-interpolation-filters="sRGB">
<feFlood flood-opacity="0" result="BackgroundImageFix"/>
<feBlend mode="normal" in="SourceGraphic" in2="BackgroundImageFix" result="shape"/>
<feColorMatrix in="SourceAlpha" type="matrix" values="0 0 0 0 0 0 0 0 0 0 0 0 0 0 0 0 0 0 127 0" result="hardAlpha"/>
<feOffset dy="4"/>
<feGaussianBlur stdDeviation="7.5"/>
<feComposite in2="hardAlpha" operator="arithmetic" k2="-1" k3="1"/>
<feColorMatrix type="matrix" values="0 0 0 0 0 0 0 0 0 0 0 0 0 0 0 0 0 0 0.25 0"/>
<feBlend mode="normal" in2="shape" result="effect1_innerShadow_3_60"/>
</filter>
</defs>
</svg>
