<?xml version="1.0" standalone="no"?>
<!DOCTYPE svg PUBLIC "-//W3C//DTD SVG 20010904//EN"
 "http://www.w3.org/TR/2001/REC-SVG-20010904/DTD/svg10.dtd">
<svg version="1.0" xmlns="http://www.w3.org/2000/svg"
 width="700.000000pt" height="700.000000pt" viewBox="0 0 700.000000 700.000000"
 preserveAspectRatio="xMidYMid meet">
<metadata>
Created by potrace 1.14, written by Peter Selinger 2001-2017
</metadata>
<g transform="translate(0.000000,700.000000) scale(0.100000,-0.100000)"
fill="#000000" stroke="none">
<path d="M250 3565 l0 -3245 3250 0 3250 0 0 3245 0 3245 -3250 0 -3250 0 0
-3245z m6470 5 l0 -3220 -3220 0 -3220 0 0 3220 0 3220 3220 0 3220 0 0 -3220z"/>
<path d="M1742 5923 l-1163 -3 3 -27 c2 -22 19 -35 101 -80 l97 -55 0 -1397 0
-1397 -93 -75 c-88 -71 -92 -76 -92 -114 l0 -40 1093 -3 1092 -2 0 265 0 265
-585 0 -585 0 2 1068 3 1067 640 0 c707 0 747 -3 1005 -66 395 -98 570 -271
688 -680 21 -74 47 -149 56 -168 24 -46 24 -91 -1 -148 -15 -34 -24 -87 -32
-178 -13 -162 -29 -226 -86 -342 l-45 -91 0 -421 c0 -232 2 -421 4 -421 9 0
165 69 232 103 179 90 369 246 482 396 65 86 147 239 185 346 65 184 99 415
100 685 0 155 -3 202 -22 290 -45 209 -123 391 -238 553 -74 105 -235 266
-340 340 -220 157 -512 267 -823 312 -139 20 -304 22 -1678 18z"/>
<path d="M670 4338 c-3 -757 -2 -1374 3 -1369 4 4 6 623 5 1377 l-3 1369 -5
-1377z"/>
<path d="M1730 4335 l0 -955 43 2 42 1 -38 4 -37 4 2 937 3 937 560 3 c578 3
676 -2 855 -38 228 -47 359 -108 475 -225 114 -113 176 -242 201 -417 l6 -47
-153 -4 -154 -3 159 -2 159 -2 -7 65 c-16 161 -85 304 -201 421 -118 119 -252
181 -488 228 -194 39 -332 46 -896 46 l-531 0 0 -955z"/>
<path d="M2710 4400 c0 -35 3 -40 28 -46 46 -11 99 -42 121 -70 l21 -27 0
-1423 0 -1422 -42 -37 c-23 -20 -64 -43 -90 -53 -44 -15 -48 -19 -48 -49 l0
-33 1742 0 1742 0 44 -21 c28 -14 57 -40 79 -71 31 -43 40 -49 67 -46 l31 3 3
403 2 402 -37 0 c-35 0 -40 -4 -58 -42 -12 -24 -40 -57 -64 -75 l-43 -33
-1229 0 -1229 0 0 1255 0 1254 30 35 c21 24 46 38 80 47 49 13 50 14 50 51 l0
38 -600 0 -600 0 0 -40z"/>
<path d="M4943 4245 c0 -22 2 -30 4 -17 2 12 2 30 0 40 -3 9 -5 -1 -4 -23z"/>
<path d="M2758 4233 c9 -7 12 -99 10 -424 l-3 -414 -35 -6 -35 -6 43 -2 42 -1
-2 427 c-3 369 -5 427 -18 430 -11 3 -12 2 -2 -4z"/>
<path d="M3816 4221 c-14 -16 -16 -33 -10 -117 3 -55 8 -106 11 -114 9 -28 23
16 29 87 2 38 6 89 9 116 4 52 -9 62 -39 28z"/>
<path d="M4932 4105 c0 -16 2 -22 5 -12 2 9 2 23 0 30 -3 6 -5 -1 -5 -18z"/>
<path d="M4922 4020 c0 -14 2 -19 5 -12 2 6 2 18 0 25 -3 6 -5 1 -5 -13z"/>
<path d="M4679 3333 c-13 -16 -12 -17 4 -4 16 13 21 21 13 21 -2 0 -10 -8 -17
-17z"/>
<path d="M4624 3268 l-29 -33 33 29 c17 17 32 31 32 33 0 8 -8 1 -36 -29z"/>
<path d="M4549 3183 l-34 -38 38 34 c20 19 37 36 37 38 0 8 -8 0 -41 -34z"/>
<path d="M4479 3124 c-13 -14 -58 -51 -99 -82 -87 -65 -108 -83 -65 -57 64 39
212 165 193 165 -2 0 -15 -12 -29 -26z"/>
<path d="M4254 2954 c-18 -14 -18 -15 4 -4 12 6 22 13 22 15 0 8 -5 6 -26 -11z"/>
<path d="M4100 2875 c-69 -35 -122 -64 -117 -64 10 -1 247 118 247 124 0 7 8
11 -130 -60z"/>
<path d="M3930 2795 c-14 -8 -20 -14 -15 -14 6 0 21 6 35 14 14 8 21 14 15 14
-5 0 -21 -6 -35 -14z"/>
<path d="M3873 2773 c-10 -4 -12 -102 -11 -451 l3 -447 2 440 c3 399 5 441 20
453 17 12 9 15 -14 5z"/>
<path d="M1810 2630 l945 -5 5 -120 6 -120 2 128 2 127 -952 -2 -953 -3 945
-5z"/>
<path d="M2774 1810 c0 -157 2 -221 3 -142 2 78 2 206 0 285 -1 78 -3 14 -3
-143z"/>
<path d="M6484 1395 c0 -104 2 -146 3 -92 2 54 2 139 0 190 -1 51 -3 7 -3 -98z"/>
<path d="M4492 1123 l1677 -3 52 -55 c29 -30 59 -55 68 -54 11 0 10 3 -5 9
-12 5 -41 31 -65 59 l-44 51 -1680 -2 -1680 -3 1677 -2z"/>
</g>
</svg>
